<svg width="1440" height="615" viewBox="0 0 1440 615" fill="none" xmlns="http://www.w3.org/2000/svg">
<path d="M61.1998 415.99L0 423.387V615H1454L1451.31 409.94C1359.17 402.544 1227.36 440.867 1205.84 452.968C1184.32 465.07 1099.58 452.968 1087.47 452.968C1075.37 452.968 931.448 467.76 917.997 464.398C904.547 461.036 654.367 452.968 632.846 452.968C611.326 452.968 492.961 443.556 452.61 432.126C412.258 420.697 264.303 423.386 240.764 432.126C221.933 439.119 113.208 424.282 61.1998 415.99Z" fill="#66B877"/>
<path d="M0 365.928V616.33L1453 617V11.1893C1440.44 10.2918 1413.31 9.03534 1405.24 11.1893C1395.15 13.8818 1379.68 31.383 1364.21 40.1337C1348.73 48.8843 1328.55 39.4614 1321.83 36.0958C1315.1 32.7301 1171.82 42.827 1168.45 51.5776C1165.09 60.3282 1135.49 74.4638 1128.09 77.1563C1120.69 79.8488 1033.92 121.582 1025.17 127.641C1016.43 133.699 841.529 163.989 826.057 177.452C810.586 190.914 805.877 183.51 780.315 201.011C754.753 218.512 540.166 293.229 532.767 293.229C525.367 293.229 458.099 339.001 450.026 324.193C441.954 309.384 418.41 301.98 413.701 298.614C408.993 295.248 398.23 295.922 387.467 301.98C376.704 308.038 371.995 291.21 361.905 283.807C351.814 276.403 310.108 283.807 286.564 283.807C263.02 283.807 261.675 280.441 251.584 293.903C241.494 307.366 211.896 307.365 197.097 304.673C182.298 301.98 158.754 312.751 121.756 310.059C84.7583 307.366 73.3227 330.926 72.65 332.945C71.9773 334.964 58.5236 340.349 52.4694 339.676C46.4153 339.003 31.6162 347.754 27.5801 353.812C24.3512 358.658 7.84799 363.909 0 365.928Z" fill="#66B877" fill-opacity="0.5"/>
<path d="M68.9574 228.309C64.6512 223.467 21.8582 192.667 1 177.873L1.67285 617H1453V219.566C1377.42 220.13 1279 256.68 1178 257.5C957.393 259.291 728.305 225.553 724.982 226.291C718.926 227.636 704.123 216.877 695.376 214.187C686.629 211.497 664.425 199.392 657.024 202.082C649.623 204.772 623.382 171.821 618.672 173.166C613.962 174.511 595.122 169.131 589.067 163.078C583.011 157.026 564.844 150.974 562.153 155.681C559.462 160.389 529.856 163.078 521.782 165.768C513.708 168.458 508.998 171.148 503.615 180.563C498.233 189.977 457.189 198.72 445.078 198.047C432.967 197.375 405.38 220.911 396.633 220.911C387.886 220.911 381.83 228.981 373.756 228.981C365.682 228.981 358.281 236.378 350.207 235.033C342.133 233.688 309.836 249.828 299.743 253.863C289.651 257.898 251.971 251.845 240.533 249.828C229.095 247.81 190.742 272.692 174.594 273.365C158.446 274.037 120.766 292.866 122.112 282.779C123.458 272.692 99.9082 245.793 94.5255 234.361C89.1427 222.929 74.3401 234.361 68.9574 228.309Z" fill="#66B877" fill-opacity="0.4"/>
<path d="M35.6519 403.024C11.4355 394.974 1.79381 395.645 0 396.986V615H1455L1450.29 291C1428.54 300.168 1380.06 318.235 1360.15 317.162C1335.26 315.82 1311.05 339.298 1299.61 354.727C1288.18 370.155 1230.33 374.18 1216.2 373.509C1202.07 372.839 1159.69 397.658 1148.93 402.354C1138.17 407.05 1087.05 403.025 1046.01 413.087C1004.98 423.149 966.637 390.95 928.967 392.292C891.297 393.634 881.207 360.763 854.3 364.118C827.393 367.472 748.689 323.869 691.512 325.882C634.334 327.894 602.718 374.849 566.394 371.495C530.069 368.141 489.036 374.179 475.583 380.217C462.129 386.254 406.297 386.925 402.933 380.217C399.57 373.508 339.029 380.887 323.558 386.925C308.086 392.962 236.11 395.645 217.275 396.316C198.44 396.987 160.097 415.099 145.298 417.782C130.499 420.465 93.5021 403.024 82.0666 403.024C70.6311 403.024 65.9223 413.086 35.6519 403.024Z" fill="#66B877" fill-opacity="0.8"/>
<path d="M70.9593 20.1645C58.5819 4.0329 19.1625 0 1 0V613H1454V215.088C1376.22 214.932 1179 189.5 1167.5 213.552C1156 237.604 782.046 208.599 780.642 202.989C777.951 192.235 685.121 171.398 656.868 171.398C628.615 171.398 570.764 133.758 549.238 133.758C532.018 133.758 483.764 124.348 461.789 119.643C445.645 116.058 411.203 108.888 402.593 108.888C391.83 108.888 375.686 129.053 360.214 133.758C344.742 138.463 316.489 107.544 301.018 108.888C285.546 110.232 245.857 77.9693 224.331 77.9693C202.806 77.9693 132.174 32.2632 122.756 20.1645C113.338 8.06579 86.431 40.3289 70.9593 20.1645Z" fill="#66B877" fill-opacity="0.2"/>
</svg>
