<svg width="18" height="18" viewBox="0 0 18 18" fill="none" xmlns="http://www.w3.org/2000/svg">
<path d="M13.1715 16.17C13.05 16.1697 12.9303 16.1399 12.8228 16.083L9.00004 14.073L5.17729 16.083C5.05351 16.1479 4.91408 16.1769 4.77471 16.1667C4.63535 16.1565 4.50159 16.1077 4.38852 16.0255C4.27546 15.9434 4.18758 15.8314 4.13479 15.702C4.08201 15.5726 4.06642 15.431 4.08979 15.2933L4.81954 11.0363L1.72654 8.02128C1.62648 7.92358 1.55573 7.79986 1.52227 7.66408C1.48881 7.5283 1.49398 7.38587 1.5372 7.25288C1.58041 7.11988 1.65995 7.00162 1.76683 6.91144C1.8737 6.82125 2.00367 6.76275 2.14204 6.74253L6.41629 6.12153L8.32804 2.24853C8.3969 2.13141 8.49517 2.03431 8.6131 1.96685C8.73104 1.89938 8.86455 1.86389 9.00041 1.86389C9.13628 1.86389 9.26979 1.89938 9.38772 1.96685C9.50565 2.03431 9.60392 2.13141 9.67279 2.24853L11.5838 6.12153L15.858 6.74253C15.9964 6.76275 16.1264 6.82125 16.2332 6.91144C16.3401 7.00162 16.4197 7.11988 16.4629 7.25288C16.5061 7.38587 16.5113 7.5283 16.4778 7.66408C16.4443 7.79986 16.3736 7.92358 16.2735 8.02128L13.1805 11.0363L13.911 15.2933C13.9295 15.4009 13.9242 15.5112 13.8956 15.6166C13.867 15.722 13.8157 15.8198 13.7454 15.9033C13.675 15.9868 13.5873 16.0539 13.4883 16.1C13.3893 16.1461 13.2807 16.17 13.1715 16.17Z" fill="#5286ED"/>
</svg>
